{"accessors" : [{"bufferView" : 0, "byteOffset" : 0, "componentType" : 5123, "count" : 96, "type" : "SCALAR", "max" : [79], "min" : [0]}, {"bufferView" : 1, "byteOffset" : 0, "componentType" : 5126, "count" : 80, "type" : "VEC3", "max" : [38.29536056518555, 26.89940071105957, -37.415836334228516], "min" : [19.27116584777832, -2.23009991645813, -50.4415168762207], "name" : "POSITION"}, {"bufferView" : 1, "byteOffset" : 12, "componentType" : 5126, "count" : 80, "type" : "VEC2", "max" : [1, -0], "min" : [0, -1], "name" : "TEXCOORD_0"}, {"bufferView" : 0, "byteOffset" : 192, "componentType" : 5123, "count" : 3648, "type" : "SCALAR", "max" : [3037], "min" : [0]}, {"bufferView" : 2, "byteOffset" : 0, "componentType" : 5126, "count" : 3038, "type" : "VEC3", "max" : [36.38317108154297, 26.89940071105957, -37.21815872192383], "min" : [19.22826385498047, -2.23009991645813, -47.04246520996094], "name" : "POSITION"}, {"bufferView" : 2, "byteOffset" : 12, "componentType" : 5126, "count" : 3038, "type" : "VEC2", "max" : [1, -0], "min" : [0, -1], "name" : "TEXCOORD_0"}, {"bufferView" : 0, "byteOffset" : 7488, "componentType" : 5123, "count" : 48, "type" : "SCALAR", "max" : [38], "min" : [0]}, {"bufferView" : 3, "byteOffset" : 0, "componentType" : 5126, "count" : 39, "type" : "VEC3", "max" : [35.460289001464844, 26.39940071105957, -37.361328125], "min" : [19.703319549560547, -1.7301000356674194, -46.22566223144531], "name" : "POSITION"}, {"bufferView" : 0, "byteOffset" : 7584, "componentType" : 5123, "count" : 3648, "type" : "SCALAR", "max" : [3039], "min" : [0]}, {"bufferView" : 4, "byteOffset" : 0, "componentType" : 5126, "count" : 3040, "type" : "VEC3", "max" : [38.33823776245117, 26.89940071105957, -40.814884185791016], "min" : [21.183353424072266, -2.23009991645813, -50.639278411865234], "name" : "POSITION"}, {"bufferView" : 4, "byteOffset" : 12, "componentType" : 5126, "count" : 3040, "type" : "VEC2", "max" : [1, -0], "min" : [0, -1], "name" : "TEXCOORD_0"}, {"bufferView" : 0, "byteOffset" : 14880, "componentType" : 5123, "count" : 48, "type" : "SCALAR", "max" : [39], "min" : [0]}, {"bufferView" : 5, "byteOffset" : 0, "componentType" : 5126, "count" : 40, "type" : "VEC3", "max" : [37.86278533935547, 26.39940071105957, -41.631927490234375], "min" : [22.105812072753906, -1.7301000356674194, -50.49626159667969], "name" : "POSITION"}, {"bufferView" : 0, "byteOffset" : 14976, "componentType" : 5123, "count" : 96, "type" : "SCALAR", "max" : [79], "min" : [0]}, {"bufferView" : 6, "byteOffset" : 0, "componentType" : 5126, "count" : 80, "type" : "VEC3", "max" : [47.293270111083984, 26.89940071105957, -32.353919982910156], "min" : [28.269149780273438, -2.23009991645813, -45.37955856323242], "name" : "POSITION"}, {"bufferView" : 6, "byteOffset" : 12, "componentType" : 5126, "count" : 80, "type" : "VEC2", "max" : [1, -0], "min" : [0, -1], "name" : "TEXCOORD_0"}, {"bufferView" : 0, "byteOffset" : 15168, "componentType" : 5123, "count" : 3648, "type" : "SCALAR", "max" : [3037], "min" : [0]}, {"bufferView" : 7, "byteOffset" : 0, "componentType" : 5126, "count" : 3038, "type" : "VEC3", "max" : [45.381080627441406, 26.89940071105957, -32.15624237060547], "min" : [28.226242065429688, -2.23009991645813, -41.980506896972656], "name" : "POSITION"}, {"bufferView" : 7, "byteOffset" : 12, "componentType" : 5126, "count" : 3038, "type" : "VEC2", "max" : [1, -0], "min" : [0, -1], "name" : "TEXCOORD_0"}, {"bufferView" : 0, "byteOffset" : 22464, "componentType" : 5123, "count" : 48, "type" : "SCALAR", "max" : [38], "min" : [0]}, {"bufferView" : 8, "byteOffset" : 0, "componentType" : 5126, "count" : 39, "type" : "VEC3", "max" : [44.45819854736328, 26.39940071105957, -32.29941177368164], "min" : [28.701234817504883, -1.7301000356674194, -41.16374206542969], "name" : "POSITION"}, {"bufferView" : 0, "byteOffset" : 22560, "componentType" : 5123, "count" : 3648, "type" : "SCALAR", "max" : [3039], "min" : [0]}, {"bufferView" : 9, "byteOffset" : 0, "componentType" : 5126, "count" : 3040, "type" : "VEC3", "max" : [47.33614730834961, 26.89940071105957, -35.752967834472656], "min" : [30.181339263916016, -2.23009991645813, -45.57733154296875], "name" : "POSITION"}, {"bufferView" : 9, "byteOffset" : 12, "componentType" : 5126, "count" : 3040, "type" : "VEC2", "max" : [1, -0], "min" : [0, -1], "name" : "TEXCOORD_0"}, {"bufferView" : 0, "byteOffset" : 29856, "componentType" : 5123, "count" : 48, "type" : "SCALAR", "max" : [39], "min" : [0]}, {"bufferView" : 10, "byteOffset" : 0, "componentType" : 5126, "count" : 40, "type" : "VEC3", "max" : [46.860694885253906, 26.39940071105957, -36.570011138916016], "min" : [31.103727340698242, -1.7301000356674194, -45.43434143066406], "name" : "POSITION"}], "asset" : {"generator" : "Aspose.3D 21.10", "version" : "2.0"}, "buffers" : [{"uri" : "data:application/octet-stream;base64,", "byteLength" : 327980}], "bufferViews" : [{"buffer" : 0, "byteOffset" : 0, "byteLength" : 29952, "target" : 34963}, {"buffer" : 0, "byteOffset" : 29956, "byteLength" : 1920, "byteStride" : 20, "target" : 34962}, {"buffer" : 0, "byteOffset" : 31880, "byteLength" : 72960, "byteStride" : 20, "target" : 34962}, {"buffer" : 0, "byteOffset" : 104844, "byteLength" : 576, "byteStride" : 12, "target" : 34962}, {"buffer" : 0, "byteOffset" : 105424, "byteLength" : 72960, "byteStride" : 20, "target" : 34962}, {"buffer" : 0, "byteOffset" : 178388, "byteLength" : 576, "byteStride" : 12, "target" : 34962}, {"buffer" : 0, "byteOffset" : 178968, "byteLength" : 1920, "byteStride" : 20, "target" : 34962}, {"buffer" : 0, "byteOffset" : 180892, "byteLength" : 72960, "byteStride" : 20, "target" : 34962}, {"buffer" : 0, "byteOffset" : 253856, "byteLength" : 576, "byteStride" : 12, "target" : 34962}, {"buffer" : 0, "byteOffset" : 254436, "byteLength" : 72960, "byteStride" : 20, "target" : 34962}, {"buffer" : 0, "byteOffset" : 327400, "byteLength" : 576, "byteStride" : 12, "target" : 34962}], "meshes" : [{"primitives" : [{"attributes" : {"POSITION" : 1, "TEXCOORD_0" : 2}, "indices" : 0, "mode" : 4}], "name" : ""}, {"primitives" : [{"attributes" : {"POSITION" : 4, "TEXCOORD_0" : 5}, "indices" : 3, "mode" : 4}], "name" : ""}, {"primitives" : [{"attributes" : {"POSITION" : 7}, "indices" : 6, "mode" : 4}], "name" : ""}, {"primitives" : [{"attributes" : {"POSITION" : 9, "TEXCOORD_0" : 10}, "indices" : 8, "mode" : 4}], "name" : ""}, {"primitives" : [{"attributes" : {"POSITION" : 12}, "indices" : 11, "mode" : 4}], "name" : ""}, {"primitives" : [{"attributes" : {"POSITION" : 14, "TEXCOORD_0" : 15}, "indices" : 13, "mode" : 4}], "name" : ""}, {"primitives" : [{"attributes" : {"POSITION" : 17, "TEXCOORD_0" : 18}, "indices" : 16, "mode" : 4}], "name" : ""}, {"primitives" : [{"attributes" : {"POSITION" : 20}, "indices" : 19, "mode" : 4}], "name" : ""}, {"primitives" : [{"attributes" : {"POSITION" : 22, "TEXCOORD_0" : 23}, "indices" : 21, "mode" : 4}], "name" : ""}, {"primitives" : [{"attributes" : {"POSITION" : 25}, "indices" : 24, "mode" : 4}], "name" : ""}], "nodes" : [{"mesh" : 0, "name" : "Null_2 Extrude_NURBS logo logo1 Path_1"}, {"mesh" : 1, "name" : "Null_2 Extrude_NURBS logo logo1 Path_1 Rounding_1"}, {"mesh" : 2, "name" : "Null_2 Extrude_NURBS logo logo1 Path_1 Rounding_1 Cap_1"}, {"mesh" : 3, "name" : "Null_2 Extrude_NURBS logo logo1 Path_1 Rounding_2"}, {"mesh" : 4, "name" : "Null_2 Extrude_NURBS logo logo1 Path_1 Rounding_2 Cap_2"}, {"mesh" : 5, "name" : "Null_2 Extrude_NURBS logo logo1 Path_2"}, {"mesh" : 6, "name" : "Null_2 Extrude_NURBS logo logo1 Path_2 Rounding_11"}, {"mesh" : 7, "name" : "Null_2 Extrude_NURBS logo logo1 Path_2 Rounding_11 Cap_11"}, {"mesh" : 8, "name" : "Null_2 Extrude_NURBS logo logo1 Path_2 Rounding_21"}, {"mesh" : 9, "name" : "Null_2 Extrude_NURBS logo logo1 Path_2 Rounding_21 Cap_21"}], "scene" : 0, "scenes" : [{"nodes" : [0, 1, 2, 3, 4, 5, 6, 7, 8, 9]}]}